<mxfile host="app.diagrams.net" agent="Mozilla/5.0 (Windows NT 10.0; Win64; x64) AppleWebKit/537.36 (KHTML, like Gecko) Chrome/128.0.0.0 Safari/537.36" version="24.7.8">
  <diagram name="Page-1" id="YQ3UiAFa2FJOTCWodV5u">
    <mxGraphModel dx="1500" dy="746" grid="1" gridSize="10" guides="1" tooltips="1" connect="1" arrows="1" fold="1" page="1" pageScale="1" pageWidth="827" pageHeight="1169" math="0" shadow="0">
      <root>
        <mxCell id="0" />
        <mxCell id="1" parent="0" />
        <mxCell id="QVReD4pQJGgZ_GsCaPXj-4" value="Server Management" style="swimlane;whiteSpace=wrap;html=1;" parent="1" vertex="1">
          <mxGeometry x="190" y="40" width="490" height="760" as="geometry" />
        </mxCell>
        <mxCell id="6f-QjpaBFBmBkzcDSJa--1" value="Channel Manipulation" style="ellipse;whiteSpace=wrap;html=1;" parent="QVReD4pQJGgZ_GsCaPXj-4" vertex="1">
          <mxGeometry x="30" y="120" width="150" height="35" as="geometry" />
        </mxCell>
        <mxCell id="6f-QjpaBFBmBkzcDSJa--2" value="Server Manipulation" style="ellipse;whiteSpace=wrap;html=1;" parent="QVReD4pQJGgZ_GsCaPXj-4" vertex="1">
          <mxGeometry x="30" y="270" width="150" height="35" as="geometry" />
        </mxCell>
        <mxCell id="6f-QjpaBFBmBkzcDSJa--3" value="Settings" style="ellipse;whiteSpace=wrap;html=1;" parent="QVReD4pQJGgZ_GsCaPXj-4" vertex="1">
          <mxGeometry x="40" y="470" width="150" height="35" as="geometry" />
        </mxCell>
        <mxCell id="6f-QjpaBFBmBkzcDSJa--4" value="Create New Channel" style="ellipse;whiteSpace=wrap;html=1;" parent="QVReD4pQJGgZ_GsCaPXj-4" vertex="1">
          <mxGeometry x="310" y="60" width="150" height="35" as="geometry" />
        </mxCell>
        <mxCell id="6f-QjpaBFBmBkzcDSJa--5" value="Change Channel" style="ellipse;whiteSpace=wrap;html=1;" parent="QVReD4pQJGgZ_GsCaPXj-4" vertex="1">
          <mxGeometry x="310" y="130" width="150" height="35" as="geometry" />
        </mxCell>
        <mxCell id="6f-QjpaBFBmBkzcDSJa--6" value="Create New Server" style="ellipse;whiteSpace=wrap;html=1;" parent="QVReD4pQJGgZ_GsCaPXj-4" vertex="1">
          <mxGeometry x="310" y="240" width="150" height="35" as="geometry" />
        </mxCell>
        <mxCell id="6f-QjpaBFBmBkzcDSJa--7" value="Change Server" style="ellipse;whiteSpace=wrap;html=1;" parent="QVReD4pQJGgZ_GsCaPXj-4" vertex="1">
          <mxGeometry x="310" y="310" width="150" height="35" as="geometry" />
        </mxCell>
        <mxCell id="6f-QjpaBFBmBkzcDSJa--8" value="Delete Server" style="ellipse;whiteSpace=wrap;html=1;" parent="QVReD4pQJGgZ_GsCaPXj-4" vertex="1">
          <mxGeometry x="310" y="190" width="150" height="35" as="geometry" />
        </mxCell>
        <mxCell id="6f-QjpaBFBmBkzcDSJa--9" value="Delete Server" style="ellipse;whiteSpace=wrap;html=1;" parent="QVReD4pQJGgZ_GsCaPXj-4" vertex="1">
          <mxGeometry x="310" y="382.5" width="150" height="35" as="geometry" />
        </mxCell>
        <mxCell id="6f-QjpaBFBmBkzcDSJa--10" value="Change Properties" style="ellipse;whiteSpace=wrap;html=1;" parent="QVReD4pQJGgZ_GsCaPXj-4" vertex="1">
          <mxGeometry x="310" y="460" width="150" height="35" as="geometry" />
        </mxCell>
        <mxCell id="6f-QjpaBFBmBkzcDSJa--11" value="Manage Member" style="ellipse;whiteSpace=wrap;html=1;" parent="QVReD4pQJGgZ_GsCaPXj-4" vertex="1">
          <mxGeometry x="310" y="545" width="150" height="35" as="geometry" />
        </mxCell>
        <mxCell id="6f-QjpaBFBmBkzcDSJa--12" value="Invite People" style="ellipse;whiteSpace=wrap;html=1;" parent="QVReD4pQJGgZ_GsCaPXj-4" vertex="1">
          <mxGeometry x="310" y="620" width="150" height="35" as="geometry" />
        </mxCell>
        <mxCell id="6f-QjpaBFBmBkzcDSJa--26" value="Search Member / Channel" style="ellipse;whiteSpace=wrap;html=1;" parent="QVReD4pQJGgZ_GsCaPXj-4" vertex="1">
          <mxGeometry x="54" y="670" width="170" height="50" as="geometry" />
        </mxCell>
        <mxCell id="6f-QjpaBFBmBkzcDSJa--27" value="" style="endArrow=classic;html=1;rounded=0;exitX=0;exitY=0.5;exitDx=0;exitDy=0;entryX=1;entryY=0;entryDx=0;entryDy=0;dashed=1;" parent="QVReD4pQJGgZ_GsCaPXj-4" source="6f-QjpaBFBmBkzcDSJa--4" target="6f-QjpaBFBmBkzcDSJa--1" edge="1">
          <mxGeometry width="50" height="50" relative="1" as="geometry">
            <mxPoint x="200" y="280" as="sourcePoint" />
            <mxPoint x="250" y="230" as="targetPoint" />
          </mxGeometry>
        </mxCell>
        <mxCell id="6f-QjpaBFBmBkzcDSJa--41" value="&amp;lt;&amp;lt;ENTENDS&amp;gt;&amp;gt;" style="edgeLabel;html=1;align=center;verticalAlign=middle;resizable=0;points=[];" parent="6f-QjpaBFBmBkzcDSJa--27" vertex="1" connectable="0">
          <mxGeometry x="-0.0859" y="1" relative="1" as="geometry">
            <mxPoint as="offset" />
          </mxGeometry>
        </mxCell>
        <mxCell id="6f-QjpaBFBmBkzcDSJa--28" value="" style="endArrow=classic;html=1;rounded=0;exitX=0;exitY=0.5;exitDx=0;exitDy=0;entryX=1;entryY=0.5;entryDx=0;entryDy=0;dashed=1;" parent="QVReD4pQJGgZ_GsCaPXj-4" source="6f-QjpaBFBmBkzcDSJa--5" target="6f-QjpaBFBmBkzcDSJa--1" edge="1">
          <mxGeometry width="50" height="50" relative="1" as="geometry">
            <mxPoint x="200" y="280" as="sourcePoint" />
            <mxPoint x="250" y="230" as="targetPoint" />
          </mxGeometry>
        </mxCell>
        <mxCell id="6f-QjpaBFBmBkzcDSJa--42" value="&amp;lt;&amp;lt;ENTENDS&amp;gt;&amp;gt;" style="edgeLabel;html=1;align=center;verticalAlign=middle;resizable=0;points=[];" parent="6f-QjpaBFBmBkzcDSJa--28" vertex="1" connectable="0">
          <mxGeometry y="-3" relative="1" as="geometry">
            <mxPoint as="offset" />
          </mxGeometry>
        </mxCell>
        <mxCell id="6f-QjpaBFBmBkzcDSJa--30" value="" style="endArrow=classic;html=1;rounded=0;exitX=0;exitY=0.5;exitDx=0;exitDy=0;entryX=1;entryY=1;entryDx=0;entryDy=0;dashed=1;" parent="QVReD4pQJGgZ_GsCaPXj-4" source="6f-QjpaBFBmBkzcDSJa--8" target="6f-QjpaBFBmBkzcDSJa--1" edge="1">
          <mxGeometry width="50" height="50" relative="1" as="geometry">
            <mxPoint x="200" y="280" as="sourcePoint" />
            <mxPoint x="250" y="230" as="targetPoint" />
          </mxGeometry>
        </mxCell>
        <mxCell id="6f-QjpaBFBmBkzcDSJa--43" value="&amp;lt;&amp;lt;ENTENDS&amp;gt;&amp;gt;" style="edgeLabel;html=1;align=center;verticalAlign=middle;resizable=0;points=[];" parent="6f-QjpaBFBmBkzcDSJa--30" vertex="1" connectable="0">
          <mxGeometry x="-0.1156" y="2" relative="1" as="geometry">
            <mxPoint x="1" as="offset" />
          </mxGeometry>
        </mxCell>
        <mxCell id="6f-QjpaBFBmBkzcDSJa--31" value="" style="endArrow=classic;html=1;rounded=0;exitX=0;exitY=0.5;exitDx=0;exitDy=0;entryX=1;entryY=0;entryDx=0;entryDy=0;dashed=1;" parent="QVReD4pQJGgZ_GsCaPXj-4" source="6f-QjpaBFBmBkzcDSJa--6" target="6f-QjpaBFBmBkzcDSJa--2" edge="1">
          <mxGeometry width="50" height="50" relative="1" as="geometry">
            <mxPoint x="200" y="280" as="sourcePoint" />
            <mxPoint x="250" y="230" as="targetPoint" />
          </mxGeometry>
        </mxCell>
        <mxCell id="6f-QjpaBFBmBkzcDSJa--44" value="&amp;lt;&amp;lt;ENTENDS&amp;gt;&amp;gt;" style="edgeLabel;html=1;align=center;verticalAlign=middle;resizable=0;points=[];" parent="6f-QjpaBFBmBkzcDSJa--31" vertex="1" connectable="0">
          <mxGeometry x="-0.087" y="-1" relative="1" as="geometry">
            <mxPoint as="offset" />
          </mxGeometry>
        </mxCell>
        <mxCell id="6f-QjpaBFBmBkzcDSJa--32" value="" style="endArrow=classic;html=1;rounded=0;exitX=0;exitY=0.5;exitDx=0;exitDy=0;entryX=1;entryY=0.5;entryDx=0;entryDy=0;dashed=1;" parent="QVReD4pQJGgZ_GsCaPXj-4" source="6f-QjpaBFBmBkzcDSJa--7" target="6f-QjpaBFBmBkzcDSJa--2" edge="1">
          <mxGeometry width="50" height="50" relative="1" as="geometry">
            <mxPoint x="200" y="280" as="sourcePoint" />
            <mxPoint x="250" y="230" as="targetPoint" />
          </mxGeometry>
        </mxCell>
        <mxCell id="6f-QjpaBFBmBkzcDSJa--45" value="&amp;lt;&amp;lt;ENTENDS&amp;gt;&amp;gt;" style="edgeLabel;html=1;align=center;verticalAlign=middle;resizable=0;points=[];" parent="6f-QjpaBFBmBkzcDSJa--32" vertex="1" connectable="0">
          <mxGeometry x="0.083" relative="1" as="geometry">
            <mxPoint x="-1" as="offset" />
          </mxGeometry>
        </mxCell>
        <mxCell id="6f-QjpaBFBmBkzcDSJa--33" value="" style="endArrow=classic;html=1;rounded=0;exitX=0;exitY=0.5;exitDx=0;exitDy=0;entryX=1;entryY=1;entryDx=0;entryDy=0;dashed=1;" parent="QVReD4pQJGgZ_GsCaPXj-4" source="6f-QjpaBFBmBkzcDSJa--9" target="6f-QjpaBFBmBkzcDSJa--2" edge="1">
          <mxGeometry width="50" height="50" relative="1" as="geometry">
            <mxPoint x="200" y="280" as="sourcePoint" />
            <mxPoint x="250" y="230" as="targetPoint" />
          </mxGeometry>
        </mxCell>
        <mxCell id="6f-QjpaBFBmBkzcDSJa--46" value="&amp;lt;&amp;lt;ENTENDS&amp;gt;&amp;gt;" style="edgeLabel;html=1;align=center;verticalAlign=middle;resizable=0;points=[];" parent="6f-QjpaBFBmBkzcDSJa--33" vertex="1" connectable="0">
          <mxGeometry x="-0.0479" y="1" relative="1" as="geometry">
            <mxPoint as="offset" />
          </mxGeometry>
        </mxCell>
        <mxCell id="6f-QjpaBFBmBkzcDSJa--34" value="" style="endArrow=classic;html=1;rounded=0;exitX=0;exitY=0.286;exitDx=0;exitDy=0;exitPerimeter=0;entryX=1;entryY=0;entryDx=0;entryDy=0;dashed=1;" parent="QVReD4pQJGgZ_GsCaPXj-4" source="6f-QjpaBFBmBkzcDSJa--10" target="6f-QjpaBFBmBkzcDSJa--3" edge="1">
          <mxGeometry width="50" height="50" relative="1" as="geometry">
            <mxPoint x="200" y="420" as="sourcePoint" />
            <mxPoint x="250" y="370" as="targetPoint" />
          </mxGeometry>
        </mxCell>
        <mxCell id="6f-QjpaBFBmBkzcDSJa--47" value="&amp;lt;&amp;lt;ENTENDS&amp;gt;&amp;gt;" style="edgeLabel;html=1;align=center;verticalAlign=middle;resizable=0;points=[];" parent="6f-QjpaBFBmBkzcDSJa--34" vertex="1" connectable="0">
          <mxGeometry x="-0.1014" relative="1" as="geometry">
            <mxPoint as="offset" />
          </mxGeometry>
        </mxCell>
        <mxCell id="6f-QjpaBFBmBkzcDSJa--35" value="" style="endArrow=classic;html=1;rounded=0;exitX=0;exitY=0.5;exitDx=0;exitDy=0;entryX=1;entryY=0.5;entryDx=0;entryDy=0;dashed=1;" parent="QVReD4pQJGgZ_GsCaPXj-4" source="6f-QjpaBFBmBkzcDSJa--11" target="6f-QjpaBFBmBkzcDSJa--3" edge="1">
          <mxGeometry width="50" height="50" relative="1" as="geometry">
            <mxPoint x="200" y="420" as="sourcePoint" />
            <mxPoint x="250" y="370" as="targetPoint" />
          </mxGeometry>
        </mxCell>
        <mxCell id="6f-QjpaBFBmBkzcDSJa--48" value="&amp;lt;&amp;lt;ENTENDS&amp;gt;&amp;gt;" style="edgeLabel;html=1;align=center;verticalAlign=middle;resizable=0;points=[];" parent="6f-QjpaBFBmBkzcDSJa--35" vertex="1" connectable="0">
          <mxGeometry x="0.1149" y="2" relative="1" as="geometry">
            <mxPoint as="offset" />
          </mxGeometry>
        </mxCell>
        <mxCell id="6f-QjpaBFBmBkzcDSJa--36" value="" style="endArrow=classic;html=1;rounded=0;exitX=0;exitY=0.5;exitDx=0;exitDy=0;entryX=1;entryY=1;entryDx=0;entryDy=0;dashed=1;" parent="QVReD4pQJGgZ_GsCaPXj-4" source="6f-QjpaBFBmBkzcDSJa--12" target="6f-QjpaBFBmBkzcDSJa--3" edge="1">
          <mxGeometry width="50" height="50" relative="1" as="geometry">
            <mxPoint x="200" y="420" as="sourcePoint" />
            <mxPoint x="250" y="370" as="targetPoint" />
          </mxGeometry>
        </mxCell>
        <mxCell id="6f-QjpaBFBmBkzcDSJa--49" value="&amp;lt;&amp;lt;ENTENDS&amp;gt;&amp;gt;" style="edgeLabel;html=1;align=center;verticalAlign=middle;resizable=0;points=[];" parent="6f-QjpaBFBmBkzcDSJa--36" vertex="1" connectable="0">
          <mxGeometry x="-0.0499" y="1" relative="1" as="geometry">
            <mxPoint as="offset" />
          </mxGeometry>
        </mxCell>
        <mxCell id="QVReD4pQJGgZ_GsCaPXj-19" value="User" style="shape=umlActor;verticalLabelPosition=bottom;verticalAlign=top;html=1;" parent="1" vertex="1">
          <mxGeometry x="70" y="380" width="30" height="60" as="geometry" />
        </mxCell>
        <mxCell id="6f-QjpaBFBmBkzcDSJa--37" value="" style="endArrow=none;html=1;rounded=0;entryX=0;entryY=0.5;entryDx=0;entryDy=0;" parent="1" target="6f-QjpaBFBmBkzcDSJa--26" edge="1">
          <mxGeometry width="50" height="50" relative="1" as="geometry">
            <mxPoint x="120" y="440" as="sourcePoint" />
            <mxPoint x="440" y="540" as="targetPoint" />
          </mxGeometry>
        </mxCell>
        <mxCell id="6f-QjpaBFBmBkzcDSJa--38" value="" style="endArrow=none;html=1;rounded=0;entryX=0;entryY=0.5;entryDx=0;entryDy=0;" parent="1" target="6f-QjpaBFBmBkzcDSJa--3" edge="1">
          <mxGeometry width="50" height="50" relative="1" as="geometry">
            <mxPoint x="120" y="430" as="sourcePoint" />
            <mxPoint x="440" y="540" as="targetPoint" />
          </mxGeometry>
        </mxCell>
        <mxCell id="6f-QjpaBFBmBkzcDSJa--39" value="" style="endArrow=none;html=1;rounded=0;entryX=0;entryY=0.5;entryDx=0;entryDy=0;" parent="1" target="6f-QjpaBFBmBkzcDSJa--2" edge="1">
          <mxGeometry width="50" height="50" relative="1" as="geometry">
            <mxPoint x="120" y="410" as="sourcePoint" />
            <mxPoint x="440" y="270" as="targetPoint" />
          </mxGeometry>
        </mxCell>
        <mxCell id="6f-QjpaBFBmBkzcDSJa--40" value="" style="endArrow=none;html=1;rounded=0;entryX=0;entryY=0.5;entryDx=0;entryDy=0;" parent="1" target="6f-QjpaBFBmBkzcDSJa--1" edge="1">
          <mxGeometry width="50" height="50" relative="1" as="geometry">
            <mxPoint x="120" y="390" as="sourcePoint" />
            <mxPoint x="440" y="270" as="targetPoint" />
          </mxGeometry>
        </mxCell>
      </root>
    </mxGraphModel>
  </diagram>
</mxfile>
